<svg xmlns="http://www.w3.org/2000/svg" viewBox="0 0 30 29.48"><title>calendar-icon</title><g id="Layer_2" data-name="Layer 2"><g id="Capa_1" data-name="Capa 1"><path d="M22.19,2.07A2.6,2.6,0,0,0,19.66,0a.49.49,0,0,0-.52.52.48.48,0,0,0,.52.51,1.53,1.53,0,0,1,1.55,1.56,1.53,1.53,0,0,1-1.55,1.55.48.48,0,0,0-.52.52.48.48,0,0,0,.52.51A2.6,2.6,0,0,0,22.19,3.1H29V7.76H1V3.1h8.8a.48.48,0,0,0,.51-.51.49.49,0,0,0-.51-.52H8.9a1.5,1.5,0,0,1,1.44-1A1.54,1.54,0,0,1,11.9,2.59a1.53,1.53,0,0,1-1.56,1.55.48.48,0,0,0-.51.52.48.48,0,0,0,.51.51,2.56,2.56,0,0,0,2.59-2.58A2.57,2.57,0,0,0,10.34,0,2.6,2.6,0,0,0,7.81,2.07H0V29.48H30V2.07ZM29,28.45H1V8.79H29Z" style="fill:#e02727"/><path d="M13.45,1A1.53,1.53,0,0,1,15,2.59a1.52,1.52,0,0,1-1.55,1.55.49.49,0,0,0-.52.52.49.49,0,0,0,.52.51A2.55,2.55,0,0,0,16,2.59,2.56,2.56,0,0,0,13.45,0a.49.49,0,0,0-.52.52A.49.49,0,0,0,13.45,1Z" style="fill:#e02727"/><path d="M16.55,1A1.53,1.53,0,0,1,18.1,2.59a1.52,1.52,0,0,1-1.55,1.55.49.49,0,0,0-.52.52.49.49,0,0,0,.52.51,2.56,2.56,0,0,0,2.59-2.58A2.57,2.57,0,0,0,16.55,0,.49.49,0,0,0,16,.52.49.49,0,0,0,16.55,1Z" style="fill:#e02727"/><circle cx="11.38" cy="12.41" r="0.52" style="fill:#e02727"/><circle cx="15" cy="12.41" r="0.52" style="fill:#e02727"/><circle cx="18.62" cy="12.41" r="0.52" style="fill:#e02727"/><circle cx="22.24" cy="12.41" r="0.52" style="fill:#e02727"/><circle cx="25.86" cy="12.41" r="0.52" style="fill:#e02727"/><circle cx="4.14" cy="16.55" r="0.52" style="fill:#e02727"/><circle cx="7.76" cy="16.55" r="0.52" style="fill:#e02727"/><circle cx="11.38" cy="16.55" r="0.52" style="fill:#e02727"/><circle cx="15" cy="16.55" r="0.52" style="fill:#e02727"/><circle cx="18.62" cy="16.55" r="0.52" style="fill:#e02727"/><circle cx="22.24" cy="16.55" r="0.52" style="fill:#e02727"/><circle cx="25.86" cy="16.55" r="0.52" style="fill:#e02727"/><circle cx="4.14" cy="20.17" r="0.52" style="fill:#e02727"/><circle cx="7.76" cy="20.17" r="0.52" style="fill:#e02727"/><circle cx="11.38" cy="20.17" r="0.52" style="fill:#e02727"/><circle cx="15" cy="20.17" r="0.52" style="fill:#e02727"/><circle cx="18.62" cy="20.17" r="0.52" style="fill:#e02727"/><circle cx="22.24" cy="20.17" r="0.52" style="fill:#e02727"/><circle cx="25.86" cy="20.17" r="0.52" style="fill:#e02727"/><circle cx="4.14" cy="24.31" r="0.52" style="fill:#e02727"/><circle cx="7.76" cy="24.31" r="0.52" style="fill:#e02727"/><circle cx="11.38" cy="24.31" r="0.52" style="fill:#e02727"/><circle cx="15" cy="24.31" r="0.52" style="fill:#e02727"/><circle cx="18.62" cy="24.31" r="0.52" style="fill:#e02727"/></g></g></svg>