<svg xmlns="http://www.w3.org/2000/svg" viewBox="0 0 30 36.02"><title>phon-icon</title><g id="Layer_2" data-name="Layer 2"><g id="Layer_1-2" data-name="Layer 1"><path d="M28,23.52h0a11.78,11.78,0,0,0-2.84-2.06A10.19,10.19,0,0,0,11.81,6.1a10.38,10.38,0,0,0-1.7-3.43C8.87.87,7.57,0,6.16,0c-1.67,0-3,1.23-4.24,2.32l-.61.54A4.21,4.21,0,0,0,0,5.84a16.67,16.67,0,0,0,1.59,7.42,37.59,37.59,0,0,0,6.07,9.49C13.69,29.84,20.11,33,23.81,33a3.78,3.78,0,0,0,2.54-.78h0c.2-.18.42-.36.65-.55,1.37-1.12,2.92-2.39,3-4.25C30.06,26.16,29.38,24.88,28,23.52ZM11.77,8.12A8.69,8.69,0,1,1,23.38,21h-.07c-1.39,0-2.37.84-3.41,1.74h0l-.07.06-.36.3a.39.39,0,0,1-.31.11c-.64,0-2.26-.67-6.08-5.13A30,30,0,0,1,9.7,13.47c-.66-1.2-.86-2.1-.52-2.4l.29-.23A6.16,6.16,0,0,0,11.77,8.12Zm14.31,22.4c-.24.2-.47.38-.68.57a2.47,2.47,0,0,1-1.58.42c-3.25,0-9.32-3.05-15-9.73A36.4,36.4,0,0,1,3,12.67,15.11,15.11,0,0,1,1.53,6a2.89,2.89,0,0,1,.75-2h0c.21-.18.42-.36.63-.56S3.63,2.8,4,2.5A27.13,27.13,0,0,1,5.71,4.63a.77.77,0,0,0,.61.31.72.72,0,0,0,.44-.14.74.74,0,0,0,.17-1C6.3,2.88,5.71,2.18,5.29,1.7a2.34,2.34,0,0,1,.88-.2c.88,0,1.78.68,2.71,2,1.23,1.79,1.73,3.09,1.51,4S9.47,8.92,8.52,9.68c-.1.08-.19.17-.3.25v0c-1,.83-.9,2.27.19,4.25A30.13,30.13,0,0,0,12,19.07c3.29,3.86,5.59,5.66,7.21,5.66a2,2,0,0,0,1.3-.47l0,0c.39.24,1,.61,1.57,1s.92.67,1.26,1a.75.75,0,1,0,1-1.14A15.35,15.35,0,0,0,22.91,24c-.44-.31-.86-.59-1.22-.82a2.73,2.73,0,0,1,1.63-.7c.91,0,2.09.69,3.61,2.1a4,4,0,0,1,1.58,2.77C28.47,28.56,27.25,29.56,26.08,30.52Z" style="fill:#e02727"/><path d="M8.19,7.56a.69.69,0,0,0,.37-.1.75.75,0,0,0,.29-1c-.12-.21-.24-.39-.37-.58a.75.75,0,0,0-1.23.86,3.58,3.58,0,0,1,.29.46A.76.76,0,0,0,8.19,7.56Z" style="fill:#e02727"/><path d="M26.09,26.63a.74.74,0,0,0-1.05,0,.75.75,0,0,0,0,1.06s.09.09.42.46a.73.73,0,0,0,.55.25.78.78,0,0,0,.5-.19.76.76,0,0,0,.06-1.07Z" style="fill:#e02727"/><path d="M19.63,15.34h2.49v1.22c0,.28.34.43.67.43s.68-.15.68-.43V15.34H24c.22,0,.43-.31.43-.62s-.15-.63-.43-.63h-.48V13c0-.3-.33-.42-.68-.42s-.67.12-.67.42v1.09H20.9l2-4a.49.49,0,0,0,.05-.18c0-.31-.43-.52-.67-.52a.59.59,0,0,0-.57.35l-2.46,4.83a.63.63,0,0,0-.08.27A.47.47,0,0,0,19.63,15.34Z" style="fill:#e02727"/><path d="M14.28,17H18c.22,0,.42-.29.42-.6s-.2-.59-.42-.59H15.09v-.24c0-1.08,3.29-1.81,3.29-4.05a2.17,2.17,0,0,0-2.32-2.1,2,2,0,0,0-2.23,1.91c0,.56.26.72.61.72s.7-.25.7-.5a.84.84,0,0,1,.92-.91.9.9,0,0,1,1,.92c0,1.46-3.34,2.34-3.34,4v1C13.69,16.82,14.05,17,14.28,17Z" style="fill:#e02727"/><path d="M22.51,34.51H7.5A.76.76,0,0,0,7.5,36h15a.76.76,0,0,0,.75-.76A.74.74,0,0,0,22.51,34.51Z" style="fill:#e02727"/></g></g></svg>