<svg xmlns="http://www.w3.org/2000/svg" viewBox="0 0 30 18.98"><title>shipping-icon</title><g id="Layer_2" data-name="Layer 2"><g id="Layer_1-2" data-name="Layer 1"><path d="M27.9,8l-.78-3.1a.47.47,0,0,0,.37-.46V4a2,2,0,0,0-2-2H22V1a1,1,0,0,0-1-1H3A1,1,0,0,0,2,1V9.49a.47.47,0,1,0,.94,0V1a0,0,0,0,1,0,0H21a0,0,0,0,1,0,0V9.49a.47.47,0,1,0,.93,0V9h5.55A1.52,1.52,0,0,1,29,10H27.52a.47.47,0,0,0-.47.47v1A1.47,1.47,0,0,0,28.52,13h.53V15H27.82a3,3,0,0,0-5.62,0H22V11.49a.47.47,0,0,0-.94,0V15H11.3a3,3,0,0,0-5.63,0H3a0,0,0,0,1,0,0V14H5A.47.47,0,1,0,5,13H.47a.47.47,0,1,0,0,.94H2v1a1,1,0,0,0,1,1H5.51v0a3,3,0,0,0,6,0v0H22.05v0a3,3,0,0,0,6,0v0h1.52A.47.47,0,0,0,30,15.5v-5A2.48,2.48,0,0,0,27.9,8ZM22,2.94h3.54a1,1,0,0,1,1,1V4H22ZM22,8V5h4.18L26.92,8ZM8.48,18a2,2,0,1,1,2-2A2,2,0,0,1,8.48,18ZM25,18a2,2,0,1,1,2-2A2,2,0,0,1,25,18Zm4-6h-.53a.53.53,0,0,1-.53-.53V11h1.06V12Z" style="fill:#e02727"/><path d="M8.48,15a1,1,0,1,0,1,1A1,1,0,0,0,8.48,15Z" style="fill:#e02727"/><path d="M25,15a1,1,0,1,0,1,1A1,1,0,0,0,25,15Z" style="fill:#e02727"/><path d="M19.51,13h-7a.47.47,0,1,0,0,.93h7a.47.47,0,1,0,0-.93Z" style="fill:#e02727"/><path d="M7.48,11h-6a.47.47,0,0,0,0,.94h6A.47.47,0,0,0,8,11.49.46.46,0,0,0,7.48,11Z" style="fill:#e02727"/><path d="M16.34,4.65a.47.47,0,0,0-.67,0L11.5,8.82,9.32,6.65a.47.47,0,0,0-.66.66l2.51,2.51a.47.47,0,0,0,.33.14.51.51,0,0,0,.34-.14l4.51-4.51A.48.48,0,0,0,16.34,4.65Z" style="fill:#e02727"/></g></g></svg>